<svg xmlns="http://www.w3.org/2000/svg" viewBox="0 0 320.6 231.77"><defs><style>.cls-1{stroke:#000;stroke-miterlimit:10;stroke-width:10px;}</style></defs><g id="Ebene_2" data-name="Ebene 2"><g id="Ebene_1-2" data-name="Ebene 1"><path class="cls-1" d="M5,48.87V36.18c.15-1.12.26-2.26.45-3.38A33.28,33.28,0,0,1,32.55,5.51C33.76,5.3,35,5.17,36.19,5H284.8l.57.11c1.66.25,3.35.35,5,.76,12.05,3.06,20.11,10.52,24.16,22.26a16.19,16.19,0,0,1,1.06,5q.07,80.13,0,160.25a34.22,34.22,0,0,1-.3,4.64,32.44,32.44,0,0,1-10,19.6,31.82,31.82,0,0,1-22.54,9.18q-51.9,0-103.79-.06l-49.63,0q-46.16,0-92.33,0a22.83,22.83,0,0,1-3.41-.27,32.71,32.71,0,0,1-18.13-8.67,32.31,32.31,0,0,1-10-18.43C5.3,198,5.17,196.81,5,195.6v-44c0-.27.07-.55.07-.83q0-50.4,0-100.82C5.07,49.59,5,49.23,5,48.87ZM38,22.52l-.12.18c.19.15.39.28.56.44L53.29,38l96.11,95.95q3.75,3.75,7.51,7.49a5.42,5.42,0,0,0,5,1.63,6.17,6.17,0,0,0,3.29-1.91q32.52-32.54,65.06-65.05l52.9-52.88c.2-.2.39-.41.66-.7ZM54.18,210.08H265.73l-73-73a6.9,6.9,0,0,1-.49.59l-27.18,27.17a5.5,5.5,0,0,1-8.3,0l-28.19-28.35c-.16-.16-.34-.31-.44-.4Zm150.54-84.66a4.08,4.08,0,0,1,.52.4L256,176.65l32.08,32.15a1,1,0,0,0,1.17.29,12.69,12.69,0,0,0,8.39-8.07,26,26,0,0,0,1.33-9q0-80.05,0-160.12c0-.23,0-.45,0-.69Zm-88.36-.9h-.29L23.54,32v.63q0,81.48,0,163a25.83,25.83,0,0,0,.37,4.3c.7,4.2,2.79,7.37,6.88,9a1,1,0,0,0,1.27-.27q41.84-41.85,83.69-83.67A3.64,3.64,0,0,1,116.36,124.52Z"/><path class="cls-1" d="M5,48.87c0,.36.07.72.07,1.08q0,50.42,0,100.82c0,.28-.05.56-.07.83Z"/></g></g></svg>