<svg xmlns="http://www.w3.org/2000/svg" viewBox="0 0 400.68 398.95"><g id="Ebene_2" data-name="Ebene 2"><g id="Ebene_1-2" data-name="Ebene 1"><path d="M0,197.64c.71-31.24.23-62.57,2.42-93.71,2.75-39.14,20-70.61,55.67-89.8C73,6.1,89.28,1,106.22.88,168.77.42,231.39-1,293.86,1.21c43.46,1.55,76.76,23.07,94.63,64.48,5.56,12.9,8.14,26.59,9.35,40.57,4.62,53.61,2.36,107.33,1.77,161C399.35,291,396.91,315,385.82,337c-12.21,24.24-30.78,41.31-56.19,50.92-13.48,5.09-27.46,7.24-41.83,8.42-53.34,4.36-106.75,2.09-160.1,1.44-21.07-.26-42.5-2.6-62.32-11.65C33.8,371.71,14.16,347.62,5.8,314,.8,293.88,1,273.45.76,253c-.19-18.46,0-36.92,0-55.37ZM199.48,362.53l0-.74c12.14,0,24.31.43,36.43-.1,22.4-1,45-.92,67.1-4.19,28.22-4.17,46.81-21.27,54.89-49.15,4.31-14.9,4.82-30.23,5-45.45.57-39.06.73-78.13.27-117.19-.22-19.36.22-39-5.4-57.86-8.05-27.06-26.39-43.64-53.8-48.7-16.08-3-32.71-3.76-49.12-4C220,34.54,185,34.73,150.09,35c-20.59.17-41.28.13-61.38,5.77-27.07,7.6-44.47,28.26-48.54,55.55A336.43,336.43,0,0,0,36.58,146q0,70.8,1.67,141.58c.39,16.44,5.29,32,15.78,45.34,14.45,18.33,34.38,25.85,56.68,27C140.26,361.44,169.89,361.72,199.48,362.53Z"/><path d="M199.85,300.8c-54.67,1-101.11-44.3-102.59-99.6C95.71,143.08,142.52,95.79,200.17,95.74c53.94,0,101.41,44.24,102.37,100.49C303.51,253.32,257.93,301.07,199.85,300.8Zm66.22-102.34c.91-35.81-29.93-67.7-69-66.4-34.77,1.15-63.61,31.39-63.58,66.42,0,35.8,30.23,67.73,69.89,66.14C237.54,263.26,266.72,233,266.07,198.46Z"/><path d="M306.48,67.92a23.56,23.56,0,0,1,24,23.92c0,13.22-11,24.33-24,24.25s-24.28-11.37-24.32-24.25S293.22,67.92,306.48,67.92Z"/></g></g></svg>