<svg xmlns="http://www.w3.org/2000/svg" viewBox="0 0 299.76 299.76"><g id="Ebene_2" data-name="Ebene 2"><g id="Ebene_1-2" data-name="Ebene 1"><path d="M0,150.2Q0,92.39.07,34.57a52,52,0,0,1,1-10.87C4,10,13.83,1.47,27.74.21c2.31-.2,4.65-.2,7-.2Q149.85,0,265,0a55.25,55.25,0,0,1,11.35,1c13,2.77,21.48,12.31,22.9,25.53a94.39,94.39,0,0,1,.5,9.94q0,113.4,0,226.79a62,62,0,0,1-.84,11.89c-3.1,15.76-14.47,24.37-32.14,24.48-16.28.1-32.56,0-48.84,0-61,0-121.95.14-182.93-.19a47.48,47.48,0,0,1-20.06-4.44C3.64,289.56,0,279,0,266.83.08,234.94,0,203,0,171.14ZM149.75,281.46H265.36c12.65,0,16.11-3.35,16.11-15.82q0-115.84,0-231.71c0-12.19-3.64-15.81-15.7-15.81H34.06c-12.33,0-15.92,3.65-15.92,16.16q0,115.6,0,231.21c0,12.49,3.49,16,16,16Z"/><path d="M155.54,243H124.76V120.22h29v27.33c4.56-5.68,8.2-10.1,11.72-14.61,14.11-18.12,43.79-22.27,62.3-8.62,8.61,6.35,12.32,15.55,13.59,25.66a259.56,259.56,0,0,1,2,28.27c.3,19.75.1,39.52.1,59.28v5.61H211.7V218.48c0-14.28.08-28.57,0-42.85a60.71,60.71,0,0,0-1.11-11.34c-2.8-14-11.31-21.17-25.2-21.4s-24.77,7.4-27.52,20.47a125.8,125.8,0,0,0-2.18,23.69C155.33,205.47,155.54,223.9,155.54,243Z"/><path d="M57,120H87.4V242.8H57Z"/><path d="M90.74,71.42c.08,10.32-9,19.35-19.33,19.29-10.17,0-19.08-8.85-19.21-19C52.07,61.44,61,52.27,71.32,52.17S90.66,61,90.74,71.42Z"/></g></g></svg>