<svg xmlns="http://www.w3.org/2000/svg" viewBox="0 0 310.69 310.85"><g id="Ebene_2" data-name="Ebene 2"><g id="Ebene_1-2" data-name="Ebene 1"><path d="M154.84,310.83q-58.52,0-117,0c-19,0-32.89-10.39-36.86-27.42A45.88,45.88,0,0,1,.05,273Q0,155.43,0,37.87C0,14.77,14.68.07,37.82.05q117.53-.11,235.05,0c23.18,0,37.78,14.69,37.79,37.82q.06,117.56,0,235.11c0,23.12-14.62,37.77-37.79,37.82C233.53,310.89,194.19,310.83,154.84,310.83Zm.54-28.27h116c9.5,0,11.08-1.56,11.08-10.91q0-116.26,0-232.53c0-9.17-1.63-10.83-10.65-10.83h-233C30,28.29,28.25,30,28.25,38.69q0,116.78,0,233.53c0,8.63,1.76,10.34,10.64,10.34Z"/><path d="M254.05,254.24H212.67v-5.92q-.13-34.75-.28-69.5a33.9,33.9,0,0,0-.59-5.95c-2.39-13.13-8.55-19-20.25-19.25-12.84-.32-21.55,6.14-24,18.66a100.61,100.61,0,0,0-1.47,18.37c-.18,19.33-.07,38.67-.07,58v5.52H124.71V120.46h39.46V139c2.82-3.49,4.66-6.18,6.9-8.47,12.48-12.79,28.13-15.16,44.79-12.63,21.48,3.26,33,15.4,36.44,37.74A161.12,161.12,0,0,1,254.18,178c.24,24,.11,48,.1,72C254.28,251.27,254.15,252.56,254.05,254.24Z"/><path d="M56.82,120.41H98.05V254.06H56.82Z"/><path d="M76.9,52.49A24.33,24.33,0,1,1,52.44,76.41,24.58,24.58,0,0,1,76.9,52.49Z"/></g></g></svg>